<svg xmlns="http://www.w3.org/2000/svg" viewBox="0 0 1235.856 707.077"><defs><style>.cls-1{fill:#4fb81c}.cls-2,.cls-3,.cls-4{fill:#efab1f}.cls-3{opacity:.7}.cls-4{opacity:.4}.cls-5{fill:#1d1d1b}.cls-6{fill:#e35500}.cls-7{fill:#942582}.cls-8{fill:#148fcf}</style></defs><g id="Ebene_2" data-name="Ebene 2"><g id="Layer_1" data-name="Layer 1"><path d="M694.579 606.577v-3a23.906 23.906 0 00-16.163 6.274l-22.958-22.957a16.5 16.5 0 10-29.777-.443l-20.314 20.314a19.5 19.5 0 10-8.288 37.146c.115 0 .228-.006.342-.008l24.666 23.975a42.045 42.045 0 00-23.508 37.7v1.5h84v-1.5a41.927 41.927 0 00-15.128-32.249l-50.917-50.174a19.358 19.358 0 00-2.4-8.185L634.3 594.8a16.47 16.47 0 0012.271.185l25.18 25.181a23.992 23.992 0 0022.823 31.414v-3a21 21 0 010-42zm-114 17.834a16.5 16.5 0 1116.5 16.5 16.519 16.519 0 01-16.5-16.5zm98.971 79.666h-77.943a39 39 0 0177.943 0zm-38.971-40.5a41.743 41.743 0 00-15.536 2.991l-23.779-23.114a19.547 19.547 0 0015.111-16.244l40.075 39.49a41.759 41.759 0 00-15.871-3.123zm-28.14-51.157a19.657 19.657 0 00-4.375-4.11l19.174-19.174a16.634 16.634 0 004.309 4.177zm14.736-32.843a13.5 13.5 0 1113.5 13.5 13.515 13.515 0 01-13.5-13.5zm22.23 13.992a16.637 16.637 0 004.431-4.055l22.5 22.5a24.066 24.066 0 00-3.361 5.125z"/><path class="cls-1" d="M708.966 619.8a15.731 15.731 0 102.113 7.875 15.737 15.737 0 00-2.113-7.875z"/><path class="cls-2" d="M681.691 619.8h27.275a15.746 15.746 0 00-27.275 0z"/><path class="cls-3" d="M681.691 619.8a15.67 15.67 0 00-2.112 7.875h31.5a15.67 15.67 0 00-2.113-7.875z"/><path class="cls-4" d="M681.691 635.548h27.275a15.67 15.67 0 002.113-7.875h-31.5a15.67 15.67 0 002.112 7.875z"/><path class="cls-5" d="M461.327 654.928a6.976 6.976 0 116.973-6.972 6.983 6.983 0 01-6.973 6.972zm0-10.951a3.976 3.976 0 103.973 3.979 3.982 3.982 0 00-3.973-3.979zm33.07 4.4v4.267c0 5.924-2.413 8.341-8.331 8.341h-49.459c-5.933 0-8.354-2.417-8.354-8.341v-6.204h-3v6.208c0 7.631 3.714 11.341 11.354 11.341h49.459c7.624 0 11.331-3.71 11.331-11.341v-1.267zm28.74-35.2l-7.649-13.251a9.018 9.018 0 00-.338-.531l-.162-.246c-.038-.059-.076-.118-.112-.17a15.124 15.124 0 00-.671-.9l-.048-.06c-.045-.057-.09-.114-.135-.166a14.518 14.518 0 00-.8-.874c-.057-.058-.113-.116-.161-.163a14.455 14.455 0 00-.781-.708l-.061-.052c-.078-.066-.157-.133-.239-.2-.247-.2-.5-.384-.745-.556-.146-.1-.291-.2-.448-.3-.22-.142-.442-.276-.663-.4-.2-.116-.406-.229-.615-.337a14.92 14.92 0 00-.555-.267c-.256-.117-.514-.23-.777-.333a16.662 16.662 0 00-1.366-.458 11.006 11.006 0 00-.346-.09l-.081-.02a11.656 11.656 0 00-1.308-.258l-.1-.015a13.876 13.876 0 00-.924-.11c-.142-.012-.286-.018-.429-.024l-.293-.016a7.417 7.417 0 00-.474-.02H497.4v-63.146c0-7.634-3.707-11.344-11.331-11.344h-49.462c-7.64 0-11.354 3.71-11.354 11.342v42.614l-8.75-5.052a7.793 7.793 0 10-7.793 13.5l10.545 6.089v-3.464l-9.045-5.223a4.793 4.793 0 114.793-8.3l10.25 5.918v11.064h3V529.5c0-5.925 2.421-8.342 8.354-8.342h49.459c5.918 0 8.331 2.418 8.331 8.344v63.137h-14.409a14.458 14.458 0 00-10.324 4.3l-17.289 17.289 1.057 1.06c.651.653 1.333 1.335 1.9 1.9l1.3 1.294a14.582 14.582 0 0020.569-.021l5.277-5.275H494.4v20.671a14.592 14.592 0 0014.536 14.562h.754l-.008-3h-.747a11.584 11.584 0 01-11.535-11.556v-23.671h-16.17l-6.156 6.153a11.579 11.579 0 01-16.162.183l-.166-.166s-.989-.986-2.131-2.13l15.174-15.173a11.479 11.479 0 018.2-3.415h22.875c.092 0 .182.008.271.013l.375.02c.1 0 .207.008.308.016.246.021.487.054.731.09l.119.017c.083.011.165.022.253.038.251.045.5.1.746.164l.086.021c.086.022.173.042.253.065.241.068.478.147.715.23a10.446 10.446 0 01.982.399c.149.068.3.139.445.213.163.084.322.173.486.268a8.73 8.73 0 01.879.559c.2.142.4.29.594.443l.235.2c.212.18.419.365.629.57l.162.167c.205.209.4.425.6.655l.139.175c.185.23.365.465.537.716l.255.389c.079.119.16.237.232.361l6.055 10.491 9.874 17.1v-6zm-95.65 27.25h-3.974a6.693 6.693 0 110-13.385h3.973a6.693 6.693 0 110 13.385zm-3.974-10.385a3.693 3.693 0 000 7.385h3.975a3.693 3.693 0 100-7.385zm8.962-23.316a7.846 7.846 0 00.925-.782 7.794 7.794 0 00-5.513-13.3h-3.274a7.794 7.794 0 00-5.512 13.3 7.933 7.933 0 00.924.782 7.786 7.786 0 004.588 14.08h3.279a7.785 7.785 0 004.583-14.08zm-7.862-11.085h3.274a4.795 4.795 0 013.391 8.183 4.622 4.622 0 01-3.3 1.4H424.5a4.611 4.611 0 01-3.277-1.4 4.794 4.794 0 013.391-8.182zm6.665 20.762a4.759 4.759 0 01-3.387 1.4h-3.282a4.791 4.791 0 01-.057-9.582h3.4a4.792 4.792 0 013.328 8.179z"/><path class="cls-6" d="M482.472 613.191l-5.277 5.275a14.582 14.582 0 01-20.569.021l-1.3-1.294-1.9-1.9-1.057-1.06 17.289-17.289a14.458 14.458 0 0110.324-4.3h8.128V529.57h-53.573v66.83a7.736 7.736 0 010 8.094v4.5a7.709 7.709 0 010 8.079v17.867h53.579v-21.748z"/><path class="cls-2" d="M434.537 529.569h53.581v26.342h-53.581z"/><path class="cls-3" d="M434.537 555.912h53.581v26.341h-53.581z"/><path class="cls-4" d="M469.664 596.94a14.458 14.458 0 0110.324-4.3h8.13v-10.384h-53.581v14.137a7.741 7.741 0 010 8.1v4.107h23.468z"/><path class="cls-1" d="M522.315 107.084c0 2.947-9.552 6.674-26.25 8.8a233.829 233.829 0 01-29.25 1.7 233.817 233.817 0 01-29.25-1.7c-16.7-2.129-26.25-5.856-26.25-8.8h-3v24c0 4.106 6.017 7.455 17.885 9.953 3.456.728 7.275 1.35 11.365 1.862a239.675 239.675 0 0029.25 1.685 239.687 239.687 0 0029.25-1.685c4.09-.512 7.908-1.134 11.364-1.862 11.868-2.5 17.886-5.847 17.886-9.953v-24z"/><path class="cls-2" d="M522.315 107.084c0 2.947-9.552 6.674-26.25 8.8V142.9c4.09-.512 7.908-1.134 11.364-1.862 11.868-2.5 17.886-5.847 17.886-9.953v-24z"/><path class="cls-3" d="M466.815 117.584v27a239.687 239.687 0 0029.25-1.685v-27.012a233.829 233.829 0 01-29.25 1.697z"/><path class="cls-4" d="M466.815 117.584a233.817 233.817 0 01-29.25-1.7V142.9a239.675 239.675 0 0029.25 1.685v-27z"/><path d="M507.429 25.131c-10.865-2.287-25.289-3.547-40.614-3.547s-29.75 1.26-40.615 3.547c-11.868 2.5-17.885 5.847-17.885 9.953v72c0 4.106 6.017 7.455 17.885 9.953 10.865 2.288 25.289 3.547 40.615 3.547s29.749-1.259 40.614-3.547c11.868-2.5 17.886-5.847 17.886-9.953v-72c0-4.106-6.015-7.454-17.886-9.953zm-40.614-.547c34.385 0 55.5 6.116 55.5 10.5s-21.115 10.5-55.5 10.5-55.5-6.115-55.5-10.5 21.113-10.5 55.5-10.5zm0 93c-34.387 0-55.5-6.115-55.5-10.5V87.715q4.332 3.088 14.885 5.322c10.865 2.288 25.289 3.547 40.615 3.547s29.749-1.259 40.614-3.547q10.553-2.222 14.886-5.322v19.369c0 4.385-21.115 10.5-55.5 10.5zm0-24c-34.387 0-55.5-6.115-55.5-10.5V63.715q4.332 3.088 14.885 5.323c10.865 2.287 25.289 3.546 40.615 3.546s29.749-1.259 40.614-3.546q10.553-2.223 14.886-5.323v19.369c0 4.385-21.115 10.5-55.5 10.5zm0-24c-34.387 0-55.5-6.115-55.5-10.5V39.715q4.332 3.088 14.885 5.323c10.865 2.287 25.289 3.546 40.615 3.546s29.749-1.259 40.614-3.546q10.553-2.223 14.886-5.323v19.369c0 4.385-21.115 10.5-55.5 10.5zm-38.4 34.38a1.5 1.5 0 01-1.467 1.2 1.426 1.426 0 01-.3-.031c-2.528-.52-4.841-1.093-6.876-1.7a1.5 1.5 0 11.859-2.874c1.952.582 4.18 1.133 6.622 1.636a1.5 1.5 0 011.165 1.769zm0-24.073a1.5 1.5 0 01-1.771 1.166c-2.521-.519-4.834-1.091-6.875-1.7a1.5 1.5 0 11.857-2.874c1.959.584 4.187 1.135 6.623 1.637a1.5 1.5 0 011.169 1.771zm0-23.5a1.5 1.5 0 01-1.467 1.2 1.568 1.568 0 01-.3-.031c-2.525-.52-4.838-1.093-6.876-1.7a1.5 1.5 0 01.859-2.875c1.954.584 4.182 1.135 6.622 1.637a1.5 1.5 0 011.165 1.765zm503.114 110.22a6.375 6.375 0 10-6.375-6.375 6.382 6.382 0 006.375 6.375zm0-9.75a3.375 3.375 0 11-3.375 3.375 3.379 3.379 0 013.375-3.375zm97.979 9.75a6.375 6.375 0 10-6.375-6.375 6.382 6.382 0 006.375 6.375zm0-9.75a3.375 3.375 0 11-3.375 3.375 3.379 3.379 0 013.375-3.375z"/><path class="cls-7" d="M980.8 198.939v-78c22.5 0 39 17.461 39 39s-16.5 39-39 39z"/><path class="cls-2" d="M1014.592 140.608c-6.743-12.75-18.795-19.669-33.795-19.669v19.669z"/><path class="cls-3" d="M980.8 140.608v19.5h39.014c0-7.5-1.9-15-5.219-19.5z"/><path class="cls-4" d="M980.8 179.608h33.795a36.5 36.5 0 005.219-19.5H980.8z"/><path d="M980.811 198.666a38.727 38.727 0 010-77.454v3a35.727 35.727 0 000 71.454zm9.183 29.935l1.3-.172v-9.864a50.375 50.375 0 009.392-2.476l4.96 8.543 1.208-.492a68.947 68.947 0 0016.446-9.54l1.026-.8-4.907-8.512a60.292 60.292 0 006.706-6.7l8.486 4.9.8-1.035a68.886 68.886 0 009.459-16.48l.487-1.211-8.431-4.844a65.181 65.181 0 002.447-9.3h9.706l.165-1.312a68.739 68.739 0 00.605-8.89 67.3 67.3 0 00-.683-9.511l-.185-1.287h-9.575a51.531 51.531 0 00-2.478-9.487l8.244-4.832-.5-1.206a69.042 69.042 0 00-9.591-16.439l-.8-1.02-8.153 4.689a60.2 60.2 0 00-6.7-6.713l4.681-8.113-1.035-.8a68.834 68.834 0 00-16.478-9.464l-1.2-.484-4.705 8.053a50.365 50.365 0 00-9.395-2.479v-9.279l-1.3-.173a66.039 66.039 0 00-18.4.018l-1.3.177v9.247a51.365 51.365 0 00-9.4 2.476l-4.659-8.012-1.206.488a68.918 68.918 0 00-16.477 9.493l-1.03.8 4.628 8.031a60.055 60.055 0 00-6.707 6.7l-8.062-4.654-.8 1.023A68.912 68.912 0 00917 134.077l-.491 1.2 8.13 4.84a51.553 51.553 0 00-2.483 9.5h-9.435l-.185 1.287a67.2 67.2 0 00-.684 9.511 68.794 68.794 0 00.6 8.889l.165 1.313h9.568a65.063 65.063 0 002.447 9.305l-8.318 4.791.484 1.208a68.894 68.894 0 009.441 16.484l.8 1.038 8.39-4.847a60.068 60.068 0 006.7 6.7l-4.87 8.434 1.023.8a68.9 68.9 0 0016.416 9.569l1.205.494 4.975-8.5a51.35 51.35 0 009.408 2.478v9.841l1.3.177a66.039 66.039 0 0018.4.018zm-16.7-12.63l-1.291-.181a48.775 48.775 0 01-11.243-2.948l-1.187-.451-4.928 8.423a65.921 65.921 0 01-13.473-7.856l4.831-8.368-.988-.807a57.02 57.02 0 01-8.076-8.075l-.808-.988-8.305 4.8a65.869 65.869 0 01-7.74-13.52l8.25-4.751-.454-1.2a61.179 61.179 0 01-2.955-11.192l-.21-1.251h-9.438a63.371 63.371 0 01-.425-7.2 64.049 64.049 0 01.482-7.8h9.417l.181-1.291A49.64 49.64 0 01927.883 140l.447-1.178-8.05-4.793a65.911 65.911 0 017.864-13.48l8 4.615.807-.988a57.01 57.01 0 018.081-8.076l.987-.806-4.584-7.955a65.94 65.94 0 0113.524-7.79l4.619 7.943 1.19-.452a48.776 48.776 0 0111.243-2.948l1.291-.181V94.7a62.247 62.247 0 0115-.013v9.224l1.292.181a48.731 48.731 0 0111.23 2.949l1.187.451 4.667-7.988a65.877 65.877 0 0113.525 7.766l-4.635 8.032.988.807a57.054 57.054 0 018.077 8.086l.806.986 8.089-4.652a66.054 66.054 0 017.877 13.5l-8.163 4.785.451 1.186a49.725 49.725 0 012.948 11.321l.181 1.291h9.555a64.012 64.012 0 01.482 7.8 63.318 63.318 0 01-.425 7.2h-9.576l-.211 1.251a60.976 60.976 0 01-2.955 11.192l-.454 1.2 8.361 4.8a65.91 65.91 0 01-7.758 13.517l-8.4-4.851-.806.988a57.07 57.07 0 01-8.081 8.077l-.987.806 4.867 8.441a65.924 65.924 0 01-13.5 7.829l-4.916-8.469-1.191.452a48.728 48.728 0 01-11.23 2.949l-1.292.181v9.818a62.247 62.247 0 01-15-.013z"/><path d="M974.854 117.593h12v-12h-12zm3-9h6v6h-6zm-3 106.248h12v-12h-12zm3-9h6v6h-6z"/><path class="cls-8" d="M812.1 24a29.976 29.976 0 104.023 15 29.983 29.983 0 00-4.023-15z"/><path class="cls-4" d="M760.143 24a29.844 29.844 0 00-4.024 15h60a29.854 29.854 0 00-4.019-15z"/><path class="cls-3" d="M760.143 54H812.1a29.854 29.854 0 004.023-15h-60a29.844 29.844 0 004.02 15z"/><path class="cls-2" d="M812.1 54h-51.957a29.993 29.993 0 0051.957 0z"/><path d="M813.7 11.7a38.375 38.375 0 00-55.17 0 40.442 40.442 0 00-11.415 28.225 39.7 39.7 0 0010.743 27.256c7.81 7.925 12.662 21.814 12.662 36.248v1.5h31.19v-1.5c0-14.9 4.37-27.882 11.99-35.613a39.492 39.492 0 0011.415-27.891A40.446 40.446 0 00813.7 11.7zm-2.137 54.01c-7.907 8.023-12.55 21.161-12.839 36.219h-11.105V75.375h-3v26.551h-11.112c-.328-14.654-5.44-28.667-13.482-36.826a36.686 36.686 0 01-9.906-25.178A37.421 37.421 0 01760.671 13.8a35.375 35.375 0 0150.9 0 37.421 37.421 0 0110.552 26.119 36.507 36.507 0 01-10.556 25.788zM768.119 111h36v3h-36zm0 9h36v3h-36zm9 9h-9v3h9v12h18v-12h9v-3h-27zm15 12h-12v-9h12zm-199.73-14.266v-20.727h1.983v20.727zm7.164 0v-14.752h1.928v2.324a10.9 10.9 0 012.468-1.839 6.455 6.455 0 013.165-.772 4.354 4.354 0 013.288 1.148 4.478 4.478 0 011.1 3.227v10.664h-1.927v-10.309a3.292 3.292 0 00-.711-2.317 2.924 2.924 0 00-2.229-.759 5.409 5.409 0 00-2.659.684 12.239 12.239 0 00-2.5 1.886v10.815zm14.697-13.098v-1.654h2.584v-5.291h1.928v5.291h3.828v1.654h-3.828v9.264a2.9 2.9 0 00.479 1.8 2.223 2.223 0 001.845.623h.828a2.459 2.459 0 00.717-.1v1.531c-.227.036-.519.074-.875.11a10.308 10.308 0 01-1.039.054 4.251 4.251 0 01-3-.854 3.743 3.743 0 01-.882-2.782v-9.653zm10.706 5.701a9.156 9.156 0 01.574-3.4 6.991 6.991 0 011.5-2.379 6.193 6.193 0 012.071-1.4 6.092 6.092 0 012.317-.465 5.812 5.812 0 012.4.492 5.219 5.219 0 011.9 1.456 7.17 7.17 0 011.265 2.406 10.84 10.84 0 01.465 3.316v.369h-10.565a7.24 7.24 0 00.376 2.432 5.555 5.555 0 001 1.786 4.25 4.25 0 003.268 1.5 4.8 4.8 0 002.7-.694 6.711 6.711 0 001.893-2.012l1.2.961a7.767 7.767 0 01-2.4 2.447 6.444 6.444 0 01-3.52.9 6.313 6.313 0 01-2.461-.492 5.659 5.659 0 01-2.055-1.476 7.474 7.474 0 01-1.408-2.407 9.545 9.545 0 01-.52-3.34zm1.955-1.148h8.654a9.5 9.5 0 00-.376-1.932 4.96 4.96 0 00-.793-1.567 3.493 3.493 0 00-1.272-1.031 3.974 3.974 0 00-1.743-.365 4.122 4.122 0 00-1.545.3 4.007 4.007 0 00-1.346.9 5.1 5.1 0 00-1.026 1.519 7.053 7.053 0 00-.553 2.176zm14.177 8.545v-14.752h1.928v2.937h.055a7.5 7.5 0 012.276-2.308 6.423 6.423 0 013.575-.916h.342l-.191 1.818h-.287a1.327 1.327 0 01-.192-.013.87.87 0 00-.109-.014 5.506 5.506 0 00-3.213.955 7 7 0 00-2.256 2.715v9.578zm11.061 0v-14.752h1.928v2.324a10.919 10.919 0 012.467-1.839 6.46 6.46 0 013.165-.772 4.357 4.357 0 013.291 1.148 4.478 4.478 0 011.1 3.227v10.664h-1.93v-10.309a3.287 3.287 0 00-.711-2.317 2.92 2.92 0 00-2.228-.759 5.409 5.409 0 00-2.659.684 12.239 12.239 0 00-2.5 1.886v10.815zm15.422-7.397a9.156 9.156 0 01.574-3.4 6.991 6.991 0 011.5-2.379 6.193 6.193 0 012.071-1.4 6.093 6.093 0 012.318-.465 5.807 5.807 0 012.4.492 5.219 5.219 0 011.9 1.456 7.152 7.152 0 011.265 2.406 10.809 10.809 0 01.465 3.316v.369H669.5a7.266 7.266 0 00.375 2.432 5.555 5.555 0 001 1.786 4.25 4.25 0 003.268 1.5 4.8 4.8 0 002.7-.694 6.726 6.726 0 001.894-2.012l1.2.961a7.756 7.756 0 01-2.4 2.447 6.444 6.444 0 01-3.52.9 6.313 6.313 0 01-2.461-.492 5.659 5.659 0 01-2.055-1.476 7.492 7.492 0 01-1.408-2.407 9.568 9.568 0 01-.522-3.34zm1.955-1.148h8.654a9.369 9.369 0 00-.376-1.932 4.94 4.94 0 00-.793-1.567 3.49 3.49 0 00-1.271-1.031 3.98 3.98 0 00-1.743-.365 4.115 4.115 0 00-1.545.3 4 4 0 00-1.347.9 5.1 5.1 0 00-1.025 1.519 7.052 7.052 0 00-.554 2.176zm12.605-4.553v-1.654h2.584v-5.291h1.928v5.291h3.828v1.654h-3.828v9.264a2.9 2.9 0 00.479 1.8 2.223 2.223 0 001.845.623h.827a2.462 2.462 0 00.718-.1v1.531c-.227.036-.519.074-.875.11a10.308 10.308 0 01-1.039.054 4.251 4.251 0 01-3-.854 3.743 3.743 0 01-.882-2.782v-9.653zm-98.581 41.729a9.342 9.342 0 01.533-3.275 7.147 7.147 0 011.441-2.406 6.011 6.011 0 012.131-1.483 6.7 6.7 0 012.588-.506 6.614 6.614 0 012.559.506 6.044 6.044 0 012.128 1.483 7.153 7.153 0 011.444 2.406 10.328 10.328 0 010 6.556 7.243 7.243 0 01-1.444 2.406 5.989 5.989 0 01-2.128 1.491 6.741 6.741 0 01-5.12 0 6.093 6.093 0 01-2.144-1.491 7.1 7.1 0 01-1.455-2.406 9.325 9.325 0 01-.533-3.281zm1.928-.028a8.927 8.927 0 00.294 2.325 5.774 5.774 0 00.9 1.921 4.542 4.542 0 001.5 1.319 4.623 4.623 0 004.067.041 4.453 4.453 0 001.485-1.251 5.708 5.708 0 00.939-1.9 8.757 8.757 0 00.321-2.455 8.381 8.381 0 00-.308-2.29 6.025 6.025 0 00-.9-1.9 4.5 4.5 0 00-1.472-1.306 4.163 4.163 0 00-2.06-.492 4.356 4.356 0 00-2.006.451 4.431 4.431 0 00-1.5 1.244 5.629 5.629 0 00-.939 1.9 8.56 8.56 0 00-.321 2.393zm13.316-5.701v-1.654h2.584v-2.215q0-3.786 4.225-3.787c.183 0 .383.005.6.014a3.189 3.189 0 01.519.053v1.587a4.136 4.136 0 00-.458-.041c-.2-.008-.371-.013-.526-.013a3.041 3.041 0 00-1.75.467 1.891 1.891 0 00-.684 1.679v2.256h3.254v1.654h-3.254v13.1h-1.928v-13.1zm14.93-5.81v-1.819h15.381v1.819h-6.7v18.908h-1.983v-18.908zm18.576 18.908v-20.727h1.928v8.3a10.9 10.9 0 012.468-1.839 6.455 6.455 0 013.165-.772 4.354 4.354 0 013.288 1.148 4.478 4.478 0 011.1 3.227v10.664h-1.927v-10.31a3.292 3.292 0 00-.711-2.317 2.924 2.924 0 00-2.229-.759 5.409 5.409 0 00-2.659.684 12.239 12.239 0 00-2.5 1.886v10.815zm16.383-18.17v-2.078h2.051v2.078zm.055 18.17v-14.752h1.928v14.752zm6.562 0v-14.752h1.928v2.324a10.9 10.9 0 012.468-1.839 6.455 6.455 0 013.165-.772 4.353 4.353 0 013.288 1.148 4.478 4.478 0 011.1 3.227v10.664h-1.927v-10.309a3.292 3.292 0 00-.711-2.317 2.924 2.924 0 00-2.229-.759 5.409 5.409 0 00-2.659.684 12.239 12.239 0 00-2.5 1.886v10.815zm14.616 1.935a2.985 2.985 0 01.724-2 4.834 4.834 0 012.024-1.342 1.9 1.9 0 01-1.286-1.881 1.848 1.848 0 01.481-1.229 4.166 4.166 0 011.283-.968 4.774 4.774 0 01-1.654-1.771 5.459 5.459 0 01-.144-4.621 5.041 5.041 0 011.217-1.675 5.657 5.657 0 011.839-1.094 6.624 6.624 0 012.324-.4 6.693 6.693 0 012.349.4 5.485 5.485 0 011.843 1.121 6.982 6.982 0 011.569-.854 7.184 7.184 0 011.827-.485v1.93a8.833 8.833 0 00-1.343.108 5.666 5.666 0 00-1.344.377 4.6 4.6 0 01.855 2.787 5.012 5.012 0 01-.448 2.149 4.922 4.922 0 01-1.215 1.636 5.279 5.279 0 01-1.817 1.034 7.007 7.007 0 01-2.274.359 6.639 6.639 0 01-2.379-.411 2.712 2.712 0 00-.854.526.974.974 0 00-.322.729.786.786 0 00.459.728 5.425 5.425 0 001.72.4l3.222.246a8.13 8.13 0 013.869 1.115 2.976 2.976 0 011.312 2.625 3.269 3.269 0 01-.5 1.792 4.036 4.036 0 01-1.4 1.311 7.529 7.529 0 01-2.144.8 12.673 12.673 0 01-2.765.281 10.843 10.843 0 01-5.325-1 3.049 3.049 0 01-1.703-2.723zm1.873-.241a1.952 1.952 0 001.278 1.8 9.827 9.827 0 004.067.625 7.652 7.652 0 003.541-.679 2.021 2.021 0 001.285-1.792 1.748 1.748 0 00-.917-1.6 7.592 7.592 0 00-3.091-.706l-2.921-.238-.782-.083a3.844 3.844 0 00-1.859 1.115 2.391 2.391 0 00-.601 1.558zm.984-11.387a3.549 3.549 0 001.08 2.72 4.656 4.656 0 005.776.016 3.5 3.5 0 001.06-2.679 3.82 3.82 0 00-1.032-2.824 4.631 4.631 0 00-5.831 0 3.7 3.7 0 00-1.053 2.767zm13.248 7.359l1.23-1.122a6.589 6.589 0 001.949 1.56 5.648 5.648 0 002.645.575 5.093 5.093 0 002.871-.665 2.189 2.189 0 00.971-1.926 2.029 2.029 0 00-.957-1.823 10.492 10.492 0 00-3.1-1.125l-2.212-.689a5.171 5.171 0 01-1.629-.8 3.18 3.18 0 01-.964-1.161 3.8 3.8 0 01-.322-1.652 3.412 3.412 0 01.335-1.484 3.629 3.629 0 01.978-1.239 4.833 4.833 0 011.565-.842 6.73 6.73 0 012.126-.307 7.845 7.845 0 013.2.574 7.517 7.517 0 012.269 1.56l-1.094 1.286a6.514 6.514 0 00-1.9-1.327 5.664 5.664 0 00-2.406-.494 5.182 5.182 0 00-1.477.182 2.861 2.861 0 00-.977.485 2 2 0 00-.561.687 1.828 1.828 0 00-.184.8 1.786 1.786 0 00.832 1.595 8.973 8.973 0 002.77.991l2.416.736a5.545 5.545 0 011.769.869 3.461 3.461 0 011.055 1.289 4.423 4.423 0 01.345 1.864 3.609 3.609 0 01-.437 1.792 4.1 4.1 0 01-1.19 1.331 5.33 5.33 0 01-1.8.818 9.189 9.189 0 01-2.31.272 7.732 7.732 0 01-3.466-.734 6.331 6.331 0 01-2.34-1.876zm-45.452 129.875a56.694 56.694 0 1057 56.694 56.912 56.912 0 00-57-56.694zm53.887 53.387l.105 3v.047h-11.8v-.047l-.071-3a70.8 70.8 0 00-6.389-27h8.811a53.148 53.148 0 019.344 27zm-52.387-27h14.424a120.6 120.6 0 013.5 27l.04 3v.047h-17.964zm-3 30h-17.964a123.09 123.09 0 013.539-30h14.425zm-20.964 0h-16.73a67.876 67.876 0 016.857-30h13.323a127.062 127.062 0 00-3.45 30zm.023 3a125.778 125.778 0 003.277 27h-13.477a67.518 67.518 0 01-6.509-27zm3 0h17.942v26.992h-14.579a121.867 121.867 0 01-3.364-26.992zm20.942.047H660a121.926 121.926 0 01-3.348 26.942h-14.58zm20.929 0h16.7a67.562 67.562 0 01-6.479 26.939h-13.48a125.907 125.907 0 003.26-26.939zm.035-3v-.047l-.039-3a124.624 124.624 0 00-3.412-27h13.323a67.162 67.162 0 016.782 27l.076 3v.047zm19.844-33.047H674.8a55.968 55.968 0 00-4.161-6.609 45.855 45.855 0 00-9.583-9.751 54.233 54.233 0 0121.821 16.36zm-11.6 0h-12.5a76.074 76.074 0 00-2.075-6.257c-2.129-5.563-4.64-9.864-7.4-12.767 8.834 2.762 16.529 9.617 21.978 19.024zm-17.372-5.185a72.346 72.346 0 011.745 5.185h-13.582v-20.193c4.284 1.024 8.531 6.357 11.84 15.008zm-14.84-15.008v20.193h-13.582a72.852 72.852 0 011.745-5.185c3.311-8.651 7.556-13.985 11.84-15.008zM624.427 307.4a76.457 76.457 0 00-2.074 6.257h-12.5c5.45-9.407 13.145-16.258 21.97-19.024-2.755 2.908-5.266 7.209-7.396 12.767zm-4.349-10.1a45.855 45.855 0 00-9.583 9.751 56.091 56.091 0 00-4.16 6.609h-8.074a54.237 54.237 0 0121.817-16.36zm-24.054 19.36h8.811a71.592 71.592 0 00-6.461 30h-11.8a53.16 53.16 0 019.45-29.998zm-9.386 33h11.779a71.189 71.189 0 006.131 27h-8.942a53.13 53.13 0 01-8.968-26.998zm11.137 30h8.241a56.418 56.418 0 004.479 7.225 45.9 45.9 0 009.583 9.751 54.249 54.249 0 01-22.303-16.974zm11.728 0h12.68a76.996 76.996 0 002.244 6.875c2.13 5.564 4.641 9.865 7.4 12.767-9.018-2.828-16.857-9.918-22.327-19.643zm17.726 5.8a74.352 74.352 0 01-1.931-5.8h13.771v20.814c-4.284-1.029-8.529-6.362-11.84-15.014zm14.84 15.008v-20.815h13.772a73.753 73.753 0 01-1.932 5.809c-3.309 8.65-7.556 13.983-11.84 15.006zm14.641-13.936a77.234 77.234 0 002.247-6.881h12.684c-5.467 9.731-13.309 16.824-22.329 19.651 2.758-2.902 5.269-7.202 7.398-12.77zm4.349 10.1a45.879 45.879 0 009.583-9.751 56.379 56.379 0 004.486-7.237h8.247a54.242 54.242 0 01-22.316 16.992zm15.541-19.985a71.223 71.223 0 006.105-26.938h11.791a53.155 53.155 0 01-8.949 26.937zm-37.531 40.825h3v36h-3zm0-177.272h3v36h-3zm72.136 106.269h36v3h-36zm349.808 0h36v3h-36zm-527.081 0h36v3h-36zm-361.411 0h36v3h-36z"/><path transform="rotate(-45 703.244 409.512)" d="M701.744 391.511h3v36h-3z"/><path transform="rotate(-45 577.893 284.16)" d="M576.393 266.161h3v36h-3z"/><path transform="rotate(-45 704.045 284.961)" d="M686.045 283.462h36v3h-36z"/><path transform="rotate(-45 578.694 410.312)" d="M560.694 408.812h36v3h-36z"/><path transform="rotate(-23.742 676.65 427.803)" d="M675.156 409.805h3v36h-3z"/><path transform="rotate(-23.742 605.278 265.534)" d="M603.783 247.535h3v36h-3z"/><path transform="rotate(-68.742 674.294 264.799)" d="M656.295 263.298h36v3h-36z"/><path transform="rotate(-68.742 610.02 430.009)" d="M592.021 428.509h36v3h-36z"/><path d="M974.759 305.842l-.1-1.387h-1.395a8.345 8.345 0 01-7.86-4.643 15.466 15.466 0 01-1.6-6.48v-1.177l-7.3-1.77-46.245-11.22-46.245 11.22-7.3 1.77v1.177a12.49 12.49 0 01-1.687 6.788 9.724 9.724 0 01-7.77 4.335h-1.4l-.1 1.387a143.16 143.16 0 005.678 45.2c.982 3.39 2.16 6.967 3.585 10.665a123.8 123.8 0 0010.08 20.485 111.924 111.924 0 0027.119 30.345 115.42 115.42 0 0017.355 11.085l.7.368.7-.368a115.369 115.369 0 0017.355-11.085 111.966 111.966 0 0027.121-30.345 123.584 123.584 0 009.967-20.25 131.88 131.88 0 003.675-10.9 143.1 143.1 0 005.667-45.2zm-8.587 44.468q-.36 1.248-.765 2.542a123.493 123.493 0 01-13.5 29.34 108.982 108.982 0 01-28.613 30.345 114.1 114.1 0 01-13.027 8.063 114.2 114.2 0 01-13.028-8.063 108.978 108.978 0 01-28.612-30.345 123.645 123.645 0 01-13.59-29.632q-.35-1.137-.675-2.25a143.465 143.465 0 01-5.662-43 13.686 13.686 0 006.337-2.707c2.347-1.868 4.388-4.958 4.657-10.088l17.041-4.132 33.532-8.13 33.517 8.13 17.07 4.14c.248 3.142 1.471 7.387 4.553 10.132a11.005 11.005 0 006.428 2.73 143.513 143.513 0 01-5.663 42.925z"/><path class="cls-7" d="M918.5 337.207c.022 1.628.007 3.263.007 4.89v.4h-16.47v-5.3a8.233 8.233 0 0116.313-1.725 11.319 11.319 0 01.15 1.735zm45.885-23.745c-.038 2.2-.158 4.92-.42 8.04a139.509 139.509 0 01-4.973 27.12c-.315 1.088-.638 2.16-.982 3.225a113.686 113.686 0 01-14.693 30.345c-.45.66-.915 1.305-1.38 1.95a101.464 101.464 0 01-31.673 28.388 101.565 101.565 0 01-31.464-28.095 80.639 80.639 0 01-1.59-2.243 113.717 113.717 0 01-14.707-30.345c-.278-.87-.547-1.755-.81-2.64a139.8 139.8 0 01-5.122-27.7 128.106 128.106 0 01-.42-8.25c.367-.172.712-.367 1.072-.577a19.461 19.461 0 009-11.52l44.032-10.68 44.232 10.72a22.891 22.891 0 00.938 2.527 18.976 18.976 0 008.955 9.735zm-34.913 31.973a2.744 2.744 0 00-2.917-2.918h-2.565v-.45c0-1.59.014-3.187-.008-4.777a20.815 20.815 0 00-.195-2.55 13.676 13.676 0 00-10.3-11.033c-.728-.165-1.471-.262-2.205-.39h-2.025c-.465.075-.938.143-1.41.225a13.657 13.657 0 00-11.273 13.013c-.052 1.822-.015 3.652-.022 5.475v.487h-2.528a2.751 2.751 0 00-2.955 2.963v21.562a2.74 2.74 0 002.925 2.91h32.556a2.744 2.744 0 002.917-2.917z"/><path class="cls-2" d="M964.38 313.462c-.038 2.2-.158 4.92-.42 8.04H856.575a128.106 128.106 0 01-.42-8.25c.367-.172.712-.367 1.072-.577a19.461 19.461 0 009-11.52l44.032-10.68 44.228 10.725a22.891 22.891 0 00.938 2.527 18.976 18.976 0 008.955 9.735z"/><path class="cls-3" d="M918.5 337.207c.022 1.628.007 3.263.007 4.89v.4h-16.47v-5.3a8.233 8.233 0 0116.313-1.725 11.319 11.319 0 01.15 1.735zm-61.92-15.7a139.8 139.8 0 005.122 27.7c.263.885.532 1.77.81 2.64h28.56v-6.367a2.751 2.751 0 012.955-2.963h2.528v-.487c.007-1.823-.03-3.653.022-5.475a13.657 13.657 0 0111.273-13.013c.472-.082.945-.15 1.41-.225h2.025c.734.128 1.477.225 2.205.39a13.676 13.676 0 0110.3 11.033 20.815 20.815 0 01.195 2.55c.022 1.59.008 3.187.008 4.777v.45h2.565a2.744 2.744 0 012.917 2.918v6.412h28.538c.344-1.065.667-2.137.982-3.225a139.509 139.509 0 004.973-27.12z"/><path class="cls-4" d="M958.005 351.847a113.686 113.686 0 01-14.693 30.345h-66.1a113.717 113.717 0 01-14.707-30.345h28.56v15.195a2.74 2.74 0 002.925 2.91h32.56a2.744 2.744 0 002.917-2.917v-15.188z"/><path class="cls-8" d="M1232.106 312.844h-2.256v-3.757a3.754 3.754 0 00-3.75-3.75h-5.625l-6.745-15.128a5 5 0 00-4.535-2.817h-16.745a5.018 5.018 0 00-4.535 2.825l-6.75 15.12h-5.627a3.754 3.754 0 00-3.75 3.75v3.757h-2.256a3.755 3.755 0 00-3.75 3.75v6.782a3.755 3.755 0 003.75 3.75h2.256v3.006a3.754 3.754 0 003.75 3.75h6.009v5.6a3.755 3.755 0 003.75 3.75h31.044a3.755 3.755 0 003.75-3.75v-5.6h6.009a3.754 3.754 0 003.75-3.75v-3.006h2.256a3.755 3.755 0 003.75-3.75v-6.782a3.755 3.755 0 00-3.75-3.75zm-37.083-7.507l2.016-4.97a2.035 2.035 0 011.791-1.038h3.982a2.015 2.015 0 011.779 1l2.03 5.008z"/><path class="cls-2" d="M1175.538 333.882h6.009v5.6a3.755 3.755 0 003.75 3.75h31.044a3.755 3.755 0 003.75-3.75v-5.6h6.009a3.754 3.754 0 003.75-3.75v-.879h-58.062v.879a3.754 3.754 0 003.75 3.75z"/><path class="cls-3" d="M1165.782 323.376a3.755 3.755 0 003.75 3.75h2.256v2.135h58.062v-2.135h2.256a3.755 3.755 0 003.75-3.75v-6.782a3.7 3.7 0 00-.243-1.292h-69.587a3.7 3.7 0 00-.244 1.292z"/><path class="cls-4" d="M1232.106 312.844h-2.256v-3.757a3.754 3.754 0 00-3.75-3.75h-5.625l-1.779-3.99H1205l1.617 3.99h-11.6l1.618-3.99h-13.7l-1.781 3.99h-5.627a3.754 3.754 0 00-3.75 3.75v3.757h-2.256a3.745 3.745 0 00-3.508 2.462h69.59a3.746 3.746 0 00-3.497-2.462z"/><path d="M1212.584 343.235v62.479l-11.438 11.439-12.088-12.059 6.377-6.381-6.375-6.375 6.375-6.376-6.375-6.375 6.375-6.375-6.375-6.375 4.805-4.806h-1.06a3.755 3.755 0 01-3.75-3.75v-15.046h3v15.046a.75.75 0 00.75.75h8.3l-7.805 7.806 6.375 6.375-6.375 6.375 6.375 6.375-6.375 6.376 6.375 6.375-6.374 6.378 7.84 7.821 8.441-8.44v-61.237zm-315.73 210.721h17.072a18.266 18.266 0 00-5.652 6h-11.42v3h13.215l.42-.807a15 15 0 0126.729 0l.421.807h86.43l.42-.807a15 15 0 0126.729 0l.421.807h13.215v-3h-11.42a18.266 18.266 0 00-5.652-6h17.072v-3h-168zm131.072 0a18.266 18.266 0 00-5.652 6h-82.84a18.266 18.266 0 00-5.652-6zm21.678-54h-29.75v45h45v-18.019zm-17.75 3h16l13.565 24h-29.565zm-9 0h6v24h-6zm39 39h-39v-12h39zm-138 18a9 9 0 109 9 9.01 9.01 0 00-9-9zm0 15a6 6 0 116-6 6.007 6.007 0 01-6 6zm114-15a9 9 0 109 9 9.01 9.01 0 00-9-9zm0 15a6 6 0 116-6 6.007 6.007 0 01-6 6z"/><path class="cls-6" transform="rotate(-90 955.354 514.956)" d="M925.354 456.456h60v117h-60z"/><path class="cls-2" transform="rotate(-90 955.354 537.456)" d="M947.854 478.956h15v117h-15z"/><path class="cls-3" transform="rotate(-90 955.354 522.456)" d="M947.854 463.956h15v117h-15z"/><path class="cls-4" transform="rotate(-90 955.354 507.456)" d="M947.854 448.956h15v117h-15z"/><path class="cls-1" d="M781.25 570.332c0-5.433 2.18-9.837 4.869-9.84v-10.6h-9.225a19.515 19.515 0 00-16.974 10.327v.01a19.371 19.371 0 00-2.283 8.868v22.089h28.487v-11.014c-2.694-.003-4.874-4.407-4.874-9.84z"/><path class="cls-2" d="M759.92 560.216h26.2v-10.324h-9.3a19.515 19.515 0 00-16.9 10.324z"/><path class="cls-3" d="M781.25 570.332c0-5.433 2.18-9.837 4.869-9.84v-.278h-26.2v.01a19.371 19.371 0 00-2.283 8.868v1.445h23.624a2.785 2.785 0 01-.01-.205z"/><path class="cls-4" d="M781.256 570.534h-23.624v10.325h28.487v-.687c-2.655-.003-4.81-4.299-4.863-9.638z"/><path class="cls-5" d="M814.607 625.247a28.5 28.5 0 01-56.957-.027c-.017-.31-.025-28.029-.025-28.029h3s.007 27.615.022 27.9a25.5 25.5 0 0050.967.026c.016-.312 0-33.925 0-33.925h-25.5v-3h25.5v-18.81a16.514 16.514 0 00-16.494-16.5h-3.008v-3h3.008a19.511 19.511 0 0119.487 19.5c-.007 55.518.018 55.518 0 55.865zm-22.113-54.915c0-6.465-2.739-11.34-6.372-11.34s-6.372 4.875-6.372 11.34 2.74 11.341 6.372 11.341 6.372-4.873 6.372-11.341zm-3 0c0 5.091-2 8.34-3.372 8.34s-3.372-3.249-3.372-8.34 2-8.34 3.372-8.34 3.372 3.249 3.372 8.34zM781.65 520.9c-4.761-3.362-9.258-6.537-9.258-13.434v-.025h-3v.025c0 8.451 5.593 12.4 10.528 15.885 4.517 3.19 8.418 5.945 8.418 11.6a36.65 36.65 0 01-1.29 8.938h3.1a38.659 38.659 0 001.189-8.938c.001-7.207-4.924-10.685-9.687-14.051z"/><path class="cls-6" d="M46.5 357.622v-40.915h-2.561L25.5 325.52 0 337.707v78h102v-78L76.5 325.52l-18.438-8.813H55.5v40.915l9 10.46v10.5L54 372.207h-6l-10.5 6.375v-10.5l9-10.46z"/><path class="cls-2" d="M76.5 415.707H102v-78L76.5 325.52v90.187z"/><path class="cls-3" d="M58.062 316.707H55.5v40.915l9 10.46v10.5L54 372.207h-3v43.5h25.5V325.52l-18.438-8.813z"/><path class="cls-4" d="M48 372.207l-10.5 6.375v-10.5l9-10.46v-40.915h-2.561L25.5 325.52v90.187H51v-43.5h-3z"/><path d="M102 325.717v13.257l-45-21.759v39.851l9 10.46v13.722l-12.42-7.541h-5.16L36 381.248v-13.722l9-10.46v-39.833L0 339.367v-13.65l44.99-34.5.01-27.695c0-2.7 1.848-9.815 6.01-9.815s5.99 7.112 5.99 9.815l.01 27.695zm-3 8.474V327.2l-44.99-34.5-.01-29.177c0-2.739-1.789-6.816-2.99-6.816S48 260.784 48 263.522l-.01 29.178L3 327.2v7.351l45-22.133v45.764l-9 10.46v7.278l8.58-5.21h6.84l8.58 5.21v-7.278l-9-10.46v-45.749z"/><path class="cls-5" d="M419.832 333.851L347 325.116v-25.954h20.861c9.241 0 32.858 18.106 35.521 20.171.078.062 7.024 5.543 13.182 11.4zM350 322.455l61.105 7.328c-4.96-4.448-9.515-8.042-9.57-8.086-7-5.429-26.719-19.535-33.674-19.535H350zm-8.96 1.945l-28.158-3.377.87-1.874c5.805-12.512 13.912-19.989 18.4-19.989h8.892zm-23.663-5.859l20.663 2.478v-18.857h-5.892c-2.312 0-9.038 4.97-14.771 16.381zm86.947 73.031a19.284 19.284 0 1119.285-19.284 19.3 19.3 0 01-19.285 19.286zm0-35.568a16.284 16.284 0 1016.285 16.284 16.3 16.3 0 00-16.285-16.282zm-28.3 15.782v3.493h-33.887v-4.485h-.037a28.144 28.144 0 00-5.844-15.75v5.539a25.154 25.154 0 012.883 11.711v2.985h-.019v3h39.913v-3h-.007v-2.989a25.277 25.277 0 0140.81-19.965v-3.688a28.277 28.277 0 00-43.806 23.151zm6.438 31.7h-12v3h12zm0-12.377h-12v3h12zm29.9-76.711c-1.284-1-31.574-24.382-42.86-24.382h-51.834c-6.417 0-19.6 12.931-26.652 36.313a137.902 137.902 0 00-3.162 12.541 34.394 34.394 0 0020.918 61.71v-.006h33.657a14.478 14.478 0 01-.115-1.776c0-.416.022-.822.055-1.224h-33.62A31.389 31.389 0 01287 343.557a105.729 105.729 0 00-1.453 17.827v11.735a5.209 5.209 0 005.2 5.206c1.884 0 3.692-.013 4.767-.024a19.2 19.2 0 10-.726-2.994c-1.07.009-2.53.018-4.041.018a2.206 2.206 0 01-2.2-2.206v-11.735a105.112 105.112 0 012.027-20.8 31.234 31.234 0 0118.2-5.833v-.01h.827a4.5 4.5 0 10.006-3h-.851v.011a34.2 34.2 0 00-17.315 4.7 137.481 137.481 0 012.449-9.263c7.139-23.67 20.07-34.179 23.78-34.179h51.838c8.513 0 32.46 17.117 41 23.736 9.82 8.2 25.381 22.98 25.381 27.774v28.555a2.214 2.214 0 01-2.209 2.209h-4.057v3h4.057a5.22 5.22 0 005.209-5.209v-28.549c-.002-7.602-22.055-26.4-26.523-30.126zm-98.532 41.608a16.284 16.284 0 11-16.28 16.284 16.3 16.3 0 0116.284-16.284zm67.136 41.294h-10.478v3h10.478a1.5 1.5 0 000-3z"/><path class="cls-1" d="M370.488 408.944h-20.841c-4.113-.008-7.333-4.465-7.333-10.146s3.22-10.137 7.331-10.145h20.843z"/><path class="cls-2" d="M349.355 408.923v-20.25c-3.97.212-7.041 4.58-7.041 10.125s3.07 9.91 7.041 10.125z"/><path class="cls-3" d="M349.647 408.944h6.753v-20.291h-6.757c-.1 0-.189.014-.284.019v20.252c.098.005.191.02.288.02z"/><path class="cls-4" d="M356.398 388.652h7.042v20.292h-7.042z"/><path d="M349.361 224.261h-69v-3h69a15 15 0 000-30h-69v-3h69a18 18 0 010 36zm-69-3h-69a15 15 0 010-30h69v-3h-69a18 18 0 000 36h69zm-51-15a9 9 0 10-9 9 9.01 9.01 0 009-9zm-3 0a6 6 0 11-6-6 6.007 6.007 0 016 6zm27 0a9 9 0 10-9 9 9.01 9.01 0 009-9zm-3 0a6 6 0 11-6-6 6.007 6.007 0 016 6zm27 0a9 9 0 10-9 9 9.01 9.01 0 009-9zm-3 0a6 6 0 11-6-6 6.007 6.007 0 016 6zm27 0a9 9 0 10-9 9 9.01 9.01 0 009-9zm-3 0a6 6 0 11-6-6 6.007 6.007 0 016 6zm27 0a9 9 0 10-9 9 9.01 9.01 0 009-9zm-3 0a6 6 0 11-6-6 6.007 6.007 0 016 6zm27 0a9 9 0 10-9 9 9.01 9.01 0 009-9zm-3 0a6 6 0 11-6-6 6.007 6.007 0 016 6z"/><path class="cls-7" d="M223.361 128.261h45v60h-45zm66 24h45v36h-45z"/><path class="cls-4" d="M223.361 143.261h45v15h-45z"/><path class="cls-3" d="M223.361 158.261h45v15h-45z"/><path class="cls-2" d="M223.361 173.261h45v15h-45z"/><path class="cls-4" d="M289.361 161.261h45v9h-45z"/><path class="cls-3" d="M289.361 170.261h45v9h-45z"/><path class="cls-2" d="M289.361 179.261h45v9h-45z"/><path class="cls-8" d="M289.393 503.064h-3.928a191.744 191.744 0 00-2.8-13.7 145.723 145.723 0 00-4.41-14.864l-.013-.034H310.9a131.546 131.546 0 014.206 14.9c.655 2.945 1.24 5.963 1.732 9.033l.088.561c.259 1.537.481 3.074.69 4.609-.052-.166-.1-.335-.156-.5h-10.743l-.115.382L305 508.76l-1.055 3.489-1.209-3.489-1.84-5.314-6.018-17.372zm29.563 16.095a149.791 149.791 0 00-1.208-14.634h-9.854l-1.28 4.235-1.607 5.314-.965 3.194-1.107-3.194-1.84-5.314-1.841-5.314-4.328-12.493-4.026 12.493-.348 1.079h-4.83l-.015-.049c.8 4.976 1.385 9.914 1.775 14.683.43 5.246.609 10.273.526 14.9h30.574l.03-.256c.171-1.585.265-3.019.313-4.207.141-3.447.145-6.931.031-10.437z"/><path class="cls-2" d="M318.922 529.6c.143-3.445.147-6.929.033-10.435h-31.476c.43 5.246.609 10.273.526 14.9h30.574l.03-.256c.171-1.592.265-3.026.313-4.209z"/><path class="cls-3" d="M287.479 519.159c-.39-4.769-.979-9.707-1.775-14.683l.015.049h4.83l.085-.264h8.9l1.559 4.5 1.84 5.314 1.107 3.194.965-3.194 1.607-5.314 1.28-4.235h9.854a149.791 149.791 0 011.208 14.634zm16.462-6.91L305 508.76l1.359-4.5h-5.181l1.558 4.5z"/><path class="cls-4" d="M299.254 503.446l.282.815h-8.9l.263-.815 4.029-12.493zm-9.861-.382l4.42-13.7h-11.148c1.071 4.39 2.011 9 2.8 13.7h3.928zm11.781 1.2h5.181l.247-.815.115-.382h10.746c.053.166.1.335.156.5a147.298 147.298 0 00-.69-4.609l-.088-.561a153.592 153.592 0 00-1.732-9.033h-19.1l4.879 14.084z"/><path d="M291.789 550.808h-3.252a1.061 1.061 0 01-1.058-1.058 1.061 1.061 0 011.058-1.058h3.252a1.061 1.061 0 011.058 1.058 1.061 1.061 0 01-1.058 1.058zm7.37-1.058a1.061 1.061 0 00-1.058-1.058h-3.251a1.061 1.061 0 00-1.058 1.058 1.061 1.061 0 001.058 1.058h3.25a1.061 1.061 0 001.059-1.058zm6.312 0a1.061 1.061 0 00-1.058-1.058h-3.251a1.061 1.061 0 00-1.058 1.058 1.061 1.061 0 001.058 1.058h3.251a1.061 1.061 0 001.058-1.058zm12.625 0a1.061 1.061 0 00-1.058-1.058h-3.252a1.062 1.062 0 00-1.058 1.058 1.062 1.062 0 001.058 1.058h3.252a1.061 1.061 0 001.062-1.058zm-6.312 0a1.061 1.061 0 00-1.058-1.058h-3.252a1.061 1.061 0 00-1.058 1.058 1.061 1.061 0 001.058 1.058h3.252a1.061 1.061 0 001.058-1.058zm-18.76-2.906a1.061 1.061 0 00-1.058-1.058h-3.251a1.061 1.061 0 00-1.058 1.058 1.061 1.061 0 001.058 1.058h3.251a1.061 1.061 0 001.058-1.058zm6.312 0a1.061 1.061 0 00-1.058-1.058h-3.251a1.061 1.061 0 00-1.058 1.058 1.061 1.061 0 001.058 1.058h3.251a1.061 1.061 0 001.058-1.058zm6.313 0a1.061 1.061 0 00-1.058-1.058h-3.252a1.061 1.061 0 00-1.058 1.058 1.061 1.061 0 001.058 1.058h3.252a1.061 1.061 0 001.058-1.058zm12.624 0a1.061 1.061 0 00-1.058-1.058h-3.251a1.061 1.061 0 00-1.058 1.058 1.061 1.061 0 001.058 1.058h3.251a1.061 1.061 0 001.058-1.058zm-6.312 0a1.061 1.061 0 00-1.058-1.058h-3.252a1.061 1.061 0 00-1.058 1.058 1.061 1.061 0 001.058 1.058h3.249a1.061 1.061 0 001.061-1.058zm-18.736-2.907a1.062 1.062 0 00-1.058-1.058h-3.251a1.062 1.062 0 00-1.058 1.058 1.061 1.061 0 001.058 1.063h3.251a1.061 1.061 0 001.058-1.063zm6.313 0a1.062 1.062 0 00-1.058-1.058h-3.252a1.062 1.062 0 00-1.058 1.058 1.061 1.061 0 001.058 1.063h3.252a1.062 1.062 0 001.058-1.063zm6.312 0a1.062 1.062 0 00-1.058-1.058h-3.252a1.062 1.062 0 00-1.058 1.058A1.061 1.061 0 00301.54 545h3.252a1.061 1.061 0 001.058-1.063zm12.624 0a1.062 1.062 0 00-1.058-1.058h-3.251a1.062 1.062 0 00-1.058 1.058 1.061 1.061 0 001.058 1.063h3.251a1.061 1.061 0 001.058-1.063zm-25.143-2.906a1.061 1.061 0 00-1.058-1.058h-3.251a1.061 1.061 0 00-1.058 1.058 1.061 1.061 0 001.058 1.058h3.251a1.061 1.061 0 001.058-1.058zm6.312 0a1.061 1.061 0 00-1.058-1.058h-3.251a1.061 1.061 0 00-1.058 1.058 1.061 1.061 0 001.058 1.058h3.251a1.061 1.061 0 001.058-1.058zm18.937 0a1.061 1.061 0 00-1.058-1.058h-3.251a1.061 1.061 0 00-1.058 1.058 1.061 1.061 0 001.058 1.058h3.251a1.061 1.061 0 001.058-1.058zm-18.88-2.906a1.061 1.061 0 00-1.058-1.058H295.4a1.061 1.061 0 00-1.058 1.058 1.061 1.061 0 001.058 1.058h3.251a1.061 1.061 0 001.049-1.058zm-9.155-33.6l.085-.264.263-.815 4.029-12.493 4.328 12.493.282.815 1.559 4.5 1.84 5.314 1.107 3.194.965-3.194 1.607-5.314 1.28-4.235h10.03l-.3-.96c-.052-.166-.1-.335-.156-.5h-10.747l-.115.382-.247.815L305 508.76l-1.055 3.489-1.209-3.489-1.558-4.5-.282-.815-4.879-14.084-1.139-3.288-1.061 3.288-4.42 13.7h-4.107c.141.469.281.938.418 1.412l.015.049zm36.338 36.414c-2.455 31.563-19.5 38.2-26.721 39.587l-.118.019-18.009 2.4q-1.615.093-3.156.093c-12.37 0-21.06-4.5-27.187-14.009-6.828-9.978-12.839-30.288-16.047-54.281-3.253-28.089-8.409-73.746 27-78.016l.1-.011 17.712-1.467c20.348-.618 30.62 18.483 34.07 26.716 5.039 10.952 8.957 25.45 11 40.759l.087.666a171.773 171.773 0 011.273 37.544zm-5.4-36.979s-4.342-27.8-10.774-40.308c-9.029-21.535-22.69-24.422-30.07-24.224l-17.492 1.452c-30.944 3.562-26.319 46.437-23.364 73.317 3.078 23.027 8.974 43.154 15.386 52.524 5.835 9.054 14.017 12.77 26.548 12.061l17.712-2.368c18.789-3.66 22.547-26.25 23.29-35.8a167.678 167.678 0 00-1.231-36.654zM251.7 498.8l9.461-1.265a1.5 1.5 0 001.281-1.677l-.121-.905a1.5 1.5 0 00-1.677-1.281l-9.46 1.265a1.5 1.5 0 00-1.281 1.676l.121.906a1.5 1.5 0 001.676 1.281zm.66 8.056l9.461-1.265a1.5 1.5 0 001.281-1.676l-.121-.906a1.5 1.5 0 00-1.677-1.281L251.845 503a1.5 1.5 0 00-1.282 1.677l.122.9a1.5 1.5 0 001.676 1.281zm.893 8.061l9.461-1.265a1.5 1.5 0 001.286-1.675l-.121-.9a1.5 1.5 0 00-1.677-1.281l-9.46 1.265a1.5 1.5 0 00-1.281 1.676l.121.906a1.5 1.5 0 001.672 1.276zm1.125 8.064l9.461-1.265a1.5 1.5 0 001.281-1.676l-.121-.906a1.5 1.5 0 00-1.677-1.281l-9.46 1.265a1.5 1.5 0 00-1.281 1.677l.121.9a1.5 1.5 0 001.677 1.288zm1.434 8.07l9.461-1.265a1.5 1.5 0 001.281-1.677l-.121-.9a1.5 1.5 0 00-1.677-1.281l-9.46 1.265a1.5 1.5 0 00-1.281 1.676l.121.906a1.5 1.5 0 001.677 1.278zm27.332 19.127l-.024.232.011.016-.014.01c-1.1 10.647-4.007 23.415-11.618 24.433a6.876 6.876 0 01-.916.062c-5.283 0-10.636-6.073-15.54-17.664-4.785-11.307-8.638-26.64-10.848-43.173-4.1-30.683-1.859-64.177 10.379-65.813 7.666-1.026 13.873 10.725 17.722 20.764 4.19 10.924 7.593 25.134 9.582 40.011s2.44 29.484 1.267 41.124zm-4.347 1.325c-5.736-8.6-10.354-22.848-12.462-38.624-2.2-16.423-1.332-31.956 2.294-41.716-.077-.206-.153-.419-.231-.622-5.357-13.967-10.491-18.489-13.271-18.121-6.139.82-11.693 24.47-6.793 61.121 2.162 16.174 5.91 31.125 10.554 42.1 4.932 11.657 9.458 15.437 12.058 15.091 2.663-.356 6.243-5.64 7.854-19.227zm.61-7.314a191.7 191.7 0 00-1.668-34.579 195.975 195.975 0 00-6.768-31.6c-2.017 9.045-2.231 21.347-.5 34.313 1.661 12.401 4.88 23.731 8.937 31.868z"/><path transform="rotate(-24.411 763.055 293.418)" d="M700.374 291.921h125.393v3H700.374z"/><path transform="rotate(-69.411 516.78 299.246)" d="M515.284 236.549h3v125.393h-3z"/><path transform="rotate(-65.589 763.076 402.025)" d="M761.57 339.329h3v125.393h-3z"/><path transform="rotate(-20.589 516.798 397.21)" d="M454.088 395.702h125.393v3H454.088z"/></g></g></svg>